<!-- iOS launch screen: same visual identity as the login branding. -->
<svg xmlns="http://www.w3.org/2000/svg" width="2732" height="2732" viewBox="0 0 2732 2732">
  <rect width="2732" height="2732" fill="#F5F6F8" />
  <g transform="translate(1366,1366)">
    <path
      fill="#E7EEFE"
      d="M -200,-200 L 200,-200 A 88,88 0 0 1 288,-112 L 288,112 A 88,88 0 0 1 200,200 L -200,200 A 88,88 0 0 1 -288,112 L -288,-112 A 88,88 0 0 1 -200,-200 Z"
    />
    <g transform="scale(0.32) translate(-480,480)">
      <path
        fill="#0F5AF0"
        d="M160-80q-33 0-56.5-23.5T80-160v-480q0-33 23.5-56.5T160-720h160v-80q0-33 23.5-56.5T400-880h160q33 0 56.5 23.5T640-800v80h160q33 0 56.5 23.5T880-640v480q0 33-23.5 56.5T800-80H160Zm0-80h640v-480H160v480Zm240-560h160v-80H400v80ZM160-160v-480 480Zm280-200v120h80v-120h120v-80H520v-120h-80v120H320v80h120Z"
      />
    </g>
  </g>
</svg>
